<svg width="128" height="128" viewBox="0 0 128 128" fill="none" xmlns="http://www.w3.org/2000/svg">
<g id="icon/&#231;&#153;&#187;&#229;&#135;&#186;">
<path id="Vector (Stroke)" fill-rule="evenodd" clip-rule="evenodd" d="M10.668 16C10.668 13.0544 13.0558 10.6666 16.0013 10.6666H63.9792C66.9247 10.6666 69.3125 13.0544 69.3125 16C69.3125 18.9455 66.9247 21.3333 63.9792 21.3333H21.3346V106.667H64.0013C66.9468 106.667 69.3346 109.054 69.3346 112C69.3346 114.945 66.9468 117.333 64.0013 117.333H16.0013C13.0558 117.333 10.668 114.945 10.668 112V16Z" fill="#EDB966"/>
<path id="Vector (Stroke)_2" fill-rule="evenodd" clip-rule="evenodd" d="M84.2301 36.2287C86.3129 34.1459 89.6897 34.1459 91.7725 36.2287L115.773 60.2287C117.855 62.3115 117.855 65.6884 115.773 67.7712L91.7725 91.7712C89.6897 93.854 86.3129 93.854 84.2301 91.7712C82.1473 89.6884 82.1473 86.3115 84.2301 84.2287L104.459 64L84.2301 43.7712C82.1473 41.6884 82.1473 38.3115 84.2301 36.2287Z" fill="#EDB966"/>
<path id="Vector (Stroke)_3" fill-rule="evenodd" clip-rule="evenodd" d="M37.332 63.9779C37.332 61.0323 39.7198 58.6445 42.6654 58.6445H111.999C114.944 58.6445 117.332 61.0323 117.332 63.9779C117.332 66.9234 114.944 69.3112 111.999 69.3112H42.6654C39.7198 69.3112 37.332 66.9234 37.332 63.9779Z" fill="#EDB966"/>
</g>
</svg>
