<svg width="48" height="48" viewBox="0 0 48 48" fill="none" xmlns="http://www.w3.org/2000/svg">
<g id="icon/&#231;&#156;&#188;&#231;&#157;&#155;/no" clip-path="url(#clip0_7201_10575)">
<path id="Vector" d="M23.9998 25.6132C15.3665 25.6132 6.74648 22.9919 0.603817 17.7599C0.428895 17.6074 0.285838 17.4218 0.182867 17.2138C0.079896 17.0058 0.019042 16.7796 0.00380196 16.548C-0.0114381 16.3164 0.0192364 16.0841 0.0940626 15.8644C0.168889 15.6448 0.286391 15.442 0.439817 15.2679C0.750926 14.9153 1.189 14.7002 1.65824 14.6698C2.12748 14.6393 2.5897 14.7958 2.94382 15.1052C13.7758 24.4252 34.2705 24.4252 45.0558 15.1052C45.4099 14.7958 45.8722 14.6393 46.3414 14.6698C46.8106 14.7002 47.2487 14.9153 47.5598 15.2679C48.2052 16.0012 48.1332 17.1172 47.3958 17.7612C41.2532 22.9919 32.6332 25.6132 23.9998 25.6132ZM17.5891 33.3252C17.4841 33.3368 17.3782 33.3368 17.2731 33.3252C16.7892 33.2586 16.3532 32.9919 16.0758 32.5919C15.7972 32.1906 15.7025 31.6906 15.8118 31.2159L16.9811 24.3426C17.0631 23.8783 17.3259 23.4656 17.7119 23.1948C18.0978 22.9241 18.5754 22.8176 19.0398 22.8986C19.2699 22.9376 19.49 23.0217 19.6875 23.146C19.885 23.2702 20.0561 23.4323 20.1908 23.6228C20.3256 23.8133 20.4214 24.0285 20.4729 24.2561C20.5243 24.4838 20.5303 24.7193 20.4905 24.9492L19.3211 31.8212C19.2615 32.2383 19.0536 32.6199 18.7355 32.8961C18.4174 33.1723 18.0104 33.3247 17.5891 33.3252ZM43.8865 29.8292C43.4198 29.8292 42.9718 29.6399 42.6465 29.3052L36.8798 23.4812C36.635 23.2707 36.4534 22.9964 36.3554 22.6887C36.2574 22.381 36.2468 22.0522 36.3248 21.7388C36.4027 21.4255 36.5663 21.14 36.7971 20.9141C37.0279 20.6883 37.3169 20.5311 37.6318 20.4599C37.9465 20.3869 38.2751 20.4019 38.5818 20.5033C38.8884 20.6047 39.1613 20.7885 39.3705 21.0346L45.1385 26.8586C45.8225 27.5412 45.8225 28.6466 45.1385 29.3292C44.7998 29.6492 44.3518 29.8279 43.8852 29.8292H43.8865ZM4.11315 29.8292C3.67609 29.8079 3.26119 29.6305 2.94382 29.3292C2.78107 29.1673 2.65192 28.9748 2.5638 28.7628C2.47568 28.5508 2.43031 28.3235 2.43031 28.0939C2.43031 27.8643 2.47568 27.637 2.5638 27.425C2.65192 27.213 2.78107 27.0205 2.94382 26.8586L8.71048 21.0346C8.90818 20.7533 9.18401 20.5361 9.50384 20.4099C9.82368 20.2837 10.1735 20.254 10.51 20.3245C10.8466 20.395 11.155 20.5626 11.3973 20.8066C11.6396 21.0506 11.805 21.3602 11.8731 21.6972C11.9391 22.0346 11.904 22.3839 11.7721 22.7013C11.6402 23.0187 11.4174 23.29 11.1318 23.4812L5.36515 29.3052C5.2024 29.4722 5.00764 29.6047 4.79253 29.6948C4.57741 29.7848 4.34635 29.8305 4.11315 29.8292ZM30.4918 33.3252C30.0812 33.3241 29.684 33.1787 29.3697 32.9146C29.0553 32.6504 28.8437 32.2842 28.7718 31.8799L27.6025 25.0066C27.4971 24.6912 27.4842 24.3522 27.5653 24.0298C27.6463 23.7073 27.8179 23.4147 28.0598 23.1866C28.3022 22.9577 28.6045 22.8024 28.9316 22.7387C29.2588 22.675 29.5973 22.7054 29.9078 22.8266C30.5425 23.0759 30.9745 23.6666 31.0185 24.3426L32.1878 31.2159C32.2732 31.6719 32.1718 32.1426 31.9052 32.5239C31.6385 32.9052 31.2318 33.1639 30.7718 33.2439C30.6814 33.2799 30.5876 33.3067 30.4918 33.3239V33.3252Z" fill="white" fill-opacity="0.4"/>
</g>
<defs>
<clipPath id="clip0_7201_10575">
<rect width="48" height="48" fill="white"/>
</clipPath>
</defs>
</svg>
