<svg width="128" height="128" viewBox="0 0 128 128" fill="none" xmlns="http://www.w3.org/2000/svg">
<g id="icon/16/&#230;&#161;&#140;&#229;&#143;&#176;/&#233;&#157;&#162;&#230;&#128;&#167;">
<path id="Vector" d="M106.211 101.508C106.211 112.174 87.3126 120.82 64 120.82C40.6876 120.82 21.7891 112.174 21.7891 101.508C21.7891 90.8418 40.6876 82.1953 64 82.1953C87.3126 82.1953 106.211 90.8418 106.211 101.508Z" fill="#EDB966"/>
<path id="Vector_2" d="M41.4219 59.2908L49.4219 78.2793L41.4219 98.8678C41.4219 98.8678 46.2488 95.49 63.9997 95.49C73.7507 95.49 86.5776 98.8678 86.5776 98.8678L78.5776 78.2793L86.5776 59.2908" fill="#EDB966"/>
<path id="Vector_3" d="M117.332 28.4453C117.332 39.1111 93.4547 47.7578 64 47.7578C34.5455 47.7578 10.668 39.1111 10.668 28.4453C10.668 17.7793 34.5455 9.13281 64 9.13281C93.4547 9.13281 117.332 17.7793 117.332 28.4453Z" fill="#EDB966"/>
<path id="Subtract" fill-rule="evenodd" clip-rule="evenodd" d="M64 54.1578C93.4547 54.1578 117.332 45.5111 117.332 34.8453C117.332 34.8383 117.332 34.8313 117.332 34.8243V47.2734C117.332 57.9392 93.4547 66.5859 64 66.5859C34.5455 66.5859 10.668 57.9392 10.668 47.2734V34.8453C10.668 45.5111 34.5455 54.1578 64 54.1578Z" fill="#EDB966"/>
</g>
</svg>
