<svg width="32" height="32" viewBox="0 0 32 32" fill="none" xmlns="http://www.w3.org/2000/svg">
<circle cx="16" cy="16" r="16" fill="#FF0000"/>
<path d="M10.648 11.092H21.4V12.412H10.648V11.092ZM14.848 15.712H21.508V17.08H14.848V15.712ZM11.692 15.28H13.708V16.492H11.692V15.28ZM10.516 17.332H13.768V18.58H10.516V17.332ZM15.064 19.864H21.292V21.208H15.064V19.864ZM13.288 10.3H14.716V13.204H13.288V10.3ZM10.96 13.6H12.232V16.492H10.96V13.6ZM17.248 10.3H18.688V13.204H17.248V10.3ZM13.12 13.456H14.488V21.58H13.12V13.456ZM17.452 13.456H18.868V20.812H17.452V13.456ZM11.224 17.8H12.436V18.34C12.436 18.66 12.412 19.016 12.364 19.408C12.316 19.792 12.212 20.176 12.052 20.56C11.9 20.944 11.656 21.3 11.32 21.628C11.208 21.492 11.044 21.34 10.828 21.172C10.62 21.012 10.432 20.888 10.264 20.8C10.552 20.536 10.764 20.26 10.9 19.972C11.036 19.676 11.124 19.384 11.164 19.096C11.204 18.8 11.224 18.532 11.224 18.292V17.8Z" fill="white"/>
<path d="M7.28827 7.66667C9.4706 5.40597 12.5325 4 15.9229 4C22.5503 4 27.9229 9.3726 27.9229 16L29.3346 11.2941M24.2562 24.6346C22.0977 26.7183 19.1599 28 15.9229 28C9.29547 28 3.92287 22.6274 3.92287 16L2.66797 20.7059" stroke="white" stroke-width="1.33" stroke-linecap="round" stroke-linejoin="round"/>
</svg>
