<svg width="32" height="32" viewBox="0 0 32 32" fill="none" xmlns="http://www.w3.org/2000/svg">
<path fill-rule="evenodd" clip-rule="evenodd" d="M29.334 7.11133C29.334 9.77778 23.3646 11.9395 16.001 11.9395C8.63736 11.9395 2.66797 9.77778 2.66797 7.11133C2.66797 4.44483 8.63736 2.2832 16.001 2.2832C23.3646 2.2832 29.334 4.44483 29.334 7.11133ZM21.0253 16.2921C25.8986 15.5736 29.334 13.8413 29.334 11.8185V8.7056L29.334 8.71144C29.334 11.3779 23.3646 13.5396 16.001 13.5396C8.63821 13.5396 2.66935 11.3784 2.66797 8.71237V11.8185C2.66797 13.841 6.10229 15.5731 10.9744 16.2917L12.3555 19.5697L11.8221 20.9424C8.07307 21.6831 5.44922 23.3898 5.44922 25.377C5.44922 28.0434 10.1738 30.2051 16.002 30.2051C21.8301 30.2051 26.5547 28.0434 26.5547 25.377C26.5547 23.389 23.9288 21.6817 20.1774 20.9415L19.6444 19.5697L21.0253 16.2921Z" fill="#8573FF"/>
<path fill-rule="evenodd" clip-rule="evenodd" d="M29.334 7.11133C29.334 9.77778 23.3646 11.9395 16.001 11.9395C8.63736 11.9395 2.66797 9.77778 2.66797 7.11133C2.66797 4.44483 8.63736 2.2832 16.001 2.2832C23.3646 2.2832 29.334 4.44483 29.334 7.11133ZM21.0253 16.2921C25.8986 15.5736 29.334 13.8413 29.334 11.8185V8.7056L29.334 8.71144C29.334 11.3779 23.3646 13.5396 16.001 13.5396C8.63821 13.5396 2.66935 11.3784 2.66797 8.71237V11.8185C2.66797 13.841 6.10229 15.5731 10.9744 16.2917L12.3555 19.5697L11.8221 20.9424C8.07307 21.6831 5.44922 23.3898 5.44922 25.377C5.44922 28.0434 10.1738 30.2051 16.002 30.2051C21.8301 30.2051 26.5547 28.0434 26.5547 25.377C26.5547 23.389 23.9288 21.6817 20.1774 20.9415L19.6444 19.5697L21.0253 16.2921Z" fill="url(#paint0_linear_7559_14846)"/>
<defs>
<linearGradient id="paint0_linear_7559_14846" x1="16.001" y1="8.7054" x2="16.001" y2="16.6466" gradientUnits="userSpaceOnUse">
<stop stop-color="#F3DCB3"/>
<stop offset="1" stop-color="#DCB57E"/>
</linearGradient>
</defs>
</svg>
