<svg width="560" height="560" viewBox="0 0 560 560" fill="none" xmlns="http://www.w3.org/2000/svg">
<g opacity="0.2">
<path fill-rule="evenodd" clip-rule="evenodd" d="M515.557 383.852C494.278 383.852 477.027 366.602 477.027 345.323L477.027 240.296C477.027 223.476 463.745 210.471 448.131 210.471C432.516 210.471 419.234 223.476 419.234 240.296L419.234 335.69L380.705 335.69L380.705 240.296C380.705 202.893 410.547 171.942 448.131 171.942C485.714 171.942 515.557 202.893 515.557 240.296L515.557 383.852Z" fill="url(#paint0_linear_7260_87031)"/>
<path fill-rule="evenodd" clip-rule="evenodd" d="M515.557 383.852L515.557 240.296C515.557 202.893 485.714 171.942 448.131 171.942C410.547 171.942 380.705 202.893 380.705 240.296L380.705 335.69L419.234 335.69L419.234 240.296C419.234 223.476 432.516 210.471 448.131 210.471C463.745 210.471 477.027 223.476 477.027 240.296L477.027 345.323C477.027 365.458 492.473 381.986 512.163 383.704C513.281 383.802 514.413 383.852 515.557 383.852ZM512.163 380.296C494.35 378.589 480.421 363.583 480.421 345.323L480.421 240.296C480.421 221.65 465.668 207.077 448.131 207.077C430.593 207.077 415.84 221.65 415.84 240.296L415.84 332.297L384.099 332.297L384.099 240.296C384.099 204.701 412.488 175.336 448.131 175.336C483.773 175.336 512.163 204.701 512.163 240.296L512.163 380.296Z" fill="white"/>
<path d="M380.707 241.481C380.707 223.566 366.998 210.471 351.81 210.471C336.622 210.471 322.913 223.566 322.913 241.481L322.913 260.595L285.439 229.222C291.008 197.181 318.012 171.942 351.81 171.942C389.82 171.942 419.236 203.863 419.236 241.481L419.236 266.618L380.707 266.618L380.707 241.481Z" fill="#D9D9D9"/>
<path d="M380.707 241.481C380.707 223.566 366.998 210.471 351.81 210.471C336.622 210.471 322.913 223.566 322.913 241.481L322.913 260.595L285.439 229.222C291.008 197.181 318.012 171.942 351.81 171.942C389.82 171.942 419.236 203.863 419.236 241.481L419.236 266.618L380.707 266.618L380.707 241.481Z" fill="url(#paint1_linear_7260_87031)"/>
<path fill-rule="evenodd" clip-rule="evenodd" d="M351.81 207.077C368.983 207.077 384.101 221.804 384.101 241.481L384.101 263.224L415.842 263.224L415.842 241.481C415.842 205.587 387.798 175.336 351.81 175.336C320.474 175.336 295.172 198.255 289.143 227.896L319.52 253.327L319.52 241.481C319.52 221.804 334.638 207.077 351.81 207.077ZM322.913 260.595L285.439 229.222C291.008 197.181 318.012 171.942 351.81 171.942C389.82 171.942 419.236 203.863 419.236 241.481L419.236 266.618L380.707 266.618L380.707 241.481C380.707 223.566 366.998 210.471 351.81 210.471C336.622 210.471 322.913 223.566 322.913 241.481L322.913 260.595Z" fill="white"/>
<path d="M211.15 383.35C211.568 383.009 212.093 382.575 212.704 382.062C214.343 380.685 216.603 378.73 219.085 376.42C224.041 371.809 229.917 365.752 233.501 360.035C236.212 355.709 238.818 349.652 240.741 344.698C241.704 342.216 242.499 340.004 243.053 338.411C243.201 337.984 243.333 337.601 243.445 337.27C243.558 337.601 243.689 337.984 243.838 338.411C244.392 340.004 245.187 342.216 246.15 344.698C248.072 349.652 250.678 355.709 253.39 360.035C256.974 365.752 262.85 371.809 267.806 376.42C270.288 378.73 272.548 380.685 274.187 382.062C274.798 382.575 275.322 383.009 275.741 383.35H211.15Z" fill="url(#paint2_linear_7260_87031)" stroke="white"/>
<path fill-rule="evenodd" clip-rule="evenodd" d="M130.56 350.111C142.442 363.691 164.536 359.547 170.69 342.584L206.909 355.723C190.756 400.253 132.756 411.131 101.563 375.482L48.3456 314.662Lnan nanL48.3456 314.662C64.3598 300.65 88.701 302.273 102.713 318.287L130.56 350.111Z" fill="url(#paint3_linear_7260_87031)"/>
<path fill-rule="evenodd" clip-rule="evenodd" d="M48.3456 314.662L101.563 375.482C132.005 410.272 187.976 400.75 205.67 358.883C206.107 357.85 206.52 356.796 206.909 355.723L170.69 342.584C164.536 359.547 142.442 363.691 130.56 350.111L102.713 318.287C89.4541 303.133 66.9464 300.866 50.9969 312.538C50.097 313.197 49.2179 313.9 48.3626 314.647C48.357 314.652 48.3513 314.657 48.3456 314.662ZM53.2413 315.103C67.7706 304.659 88.1351 306.78 100.159 320.522L128.005 352.346C140.828 367 164.052 363.6 172.531 346.862L202.474 357.724C185.665 397.163 132.857 406.093 104.118 373.248L53.2413 315.103Z" fill="white"/>
<path fill-rule="evenodd" clip-rule="evenodd" d="M175.27 213.045C163.916 201.692 145.509 201.692 134.156 213.045C122.803 224.398 122.803 242.806 134.156 254.159L151.246 271.248L124.001 298.492L106.912 281.403C80.5122 255.003 80.5122 212.201 106.912 185.801C133.312 159.401 176.114 159.401 202.514 185.801L219.603 202.89L192.359 230.135L175.27 213.045Z" fill="url(#paint4_linear_7260_87031)"/>
<path fill-rule="evenodd" clip-rule="evenodd" d="M131.756 210.645C144.435 197.967 164.991 197.967 177.67 210.645L192.359 225.335L214.804 202.89L200.114 188.201C175.04 163.127 134.386 163.127 109.312 188.201C84.2375 213.275 84.2374 253.929 109.312 279.003L124.001 293.693L146.446 271.248L131.756 256.559C119.078 243.88 119.078 223.324 131.756 210.645ZM134.156 254.159C122.803 242.806 122.803 224.398 134.156 213.045C145.509 201.692 163.916 201.692 175.27 213.045L192.359 230.135L219.603 202.89L202.514 185.801C176.114 159.401 133.312 159.401 106.912 185.801C80.5122 212.201 80.5122 255.003 106.912 281.403L124.001 298.492L151.246 271.248L134.156 254.159Z" fill="white"/>
<path fill-rule="evenodd" clip-rule="evenodd" d="M240.577 323.995C232.145 334.08 219.398 340.505 205.134 340.505C179.745 340.505 159.162 320.146 159.162 295.032C159.162 277.565 173.497 263.873 186.472 252.18L243.445 200.837L300.417 252.18C313.392 263.873 327.727 277.565 327.727 295.032C327.727 320.146 307.145 340.505 281.755 340.505C267.491 340.505 254.744 334.079 246.312 323.995C256.147 307.879 270.105 294.631 286.789 285.647C268.411 275.751 253.34 260.681 243.444 242.303C233.548 260.681 218.478 275.751 200.099 285.647C216.783 294.631 230.741 307.879 240.577 323.995Z" fill="url(#paint5_linear_7260_87031)"/>
<path fill-rule="evenodd" clip-rule="evenodd" d="M283.31 287.605C268.163 296.508 255.456 309.012 246.312 323.995C254.744 334.079 267.491 340.505 281.755 340.505C307.145 340.505 327.727 320.146 327.727 295.032C327.727 277.565 313.392 263.873 300.417 252.18L243.445 200.837L186.472 252.18C173.497 263.873 159.162 277.565 159.162 295.032C159.162 320.146 179.745 340.505 205.134 340.505C219.398 340.505 232.145 334.08 240.577 323.995C231.433 309.013 218.726 296.508 203.578 287.605C202.432 286.932 201.273 286.279 200.099 285.647C201.273 285.016 202.432 284.363 203.578 283.689C219.235 274.487 232.284 261.438 241.486 245.781C242.16 244.636 242.812 243.476 243.444 242.303C244.076 243.476 244.729 244.636 245.402 245.781C254.604 261.438 267.654 274.487 283.31 283.689C284.456 284.363 285.616 285.016 286.789 285.647C285.616 286.279 284.456 286.932 283.31 287.605ZM236.353 323.647C228.577 331.928 217.473 337.111 205.134 337.111C181.584 337.111 162.556 318.237 162.556 295.032C162.556 287.275 165.729 280.181 170.684 273.454C175.66 266.697 182.245 260.558 188.744 254.701L243.445 205.406L298.145 254.701C304.644 260.558 311.229 266.697 316.205 273.454C321.16 280.181 324.333 287.275 324.333 295.032C324.333 318.237 305.305 337.111 281.755 337.111C269.416 337.111 258.312 331.928 250.536 323.646C259.969 308.999 272.982 296.937 288.398 288.636L293.948 285.647L288.398 282.659C270.605 273.078 256.014 258.487 246.432 240.693L243.444 235.144L240.456 240.693C230.875 258.487 216.284 273.078 198.49 282.659L192.941 285.647L198.49 288.636C213.907 296.937 226.92 308.999 236.353 323.647Z" fill="white"/>
</g>
<defs>
<linearGradient id="paint0_linear_7260_87031" x1="515.557" y1="277.897" x2="380.705" y2="277.897" gradientUnits="userSpaceOnUse">
<stop stop-color="#FFE6BA"/>
<stop offset="1" stop-color="#B69965"/>
</linearGradient>
<linearGradient id="paint1_linear_7260_87031" x1="419.236" y1="219.28" x2="285.439" y2="219.28" gradientUnits="userSpaceOnUse">
<stop stop-color="#FFE6BA"/>
<stop offset="1" stop-color="#B69965"/>
</linearGradient>
<linearGradient id="paint2_linear_7260_87031" x1="243.445" y1="335.689" x2="243.445" y2="383.85" gradientUnits="userSpaceOnUse">
<stop stop-color="#FFE6BA"/>
<stop offset="1" stop-color="#B69965"/>
</linearGradient>
<linearGradient id="paint3_linear_7260_87031" x1="96.4513" y1="370.576" x2="159.107" y2="307.92" gradientUnits="userSpaceOnUse">
<stop stop-color="#FFE6BA"/>
<stop offset="1" stop-color="#B69965"/>
</linearGradient>
<linearGradient id="paint4_linear_7260_87031" x1="187.158" y1="170.445" x2="91.5561" y2="266.047" gradientUnits="userSpaceOnUse">
<stop stop-color="#FFE6BA"/>
<stop offset="1" stop-color="#B69965"/>
</linearGradient>
<linearGradient id="paint5_linear_7260_87031" x1="243.445" y1="200.837" x2="243.445" y2="340.505" gradientUnits="userSpaceOnUse">
<stop stop-color="#FFE6BA"/>
<stop offset="1" stop-color="#B69965"/>
</linearGradient>
</defs>
</svg>
