<svg width="32" height="32" viewBox="0 0 32 32" fill="none" xmlns="http://www.w3.org/2000/svg">
<g clip-path="url(#clip0_7379_2684)">
<path d="M15.9837 31.9844C7.1708 31.9844 0 24.8136 0 15.9993C0 7.18643 7.1708 0.015625 15.9837 0.015625C24.7966 0.015625 31.9674 7.18643 31.9674 15.9993C31.9688 24.8136 24.798 31.9844 15.9837 31.9844Z" fill="#46D963"/>
<path d="M24.1755 11.6805C24.0513 11.5557 23.9037 11.4566 23.7411 11.389C23.5786 11.3214 23.4042 11.2866 23.2281 11.2866C23.0521 11.2866 22.8777 11.3214 22.7152 11.389C22.5526 11.4566 22.405 11.5557 22.2808 11.6805L13.88 20.1012L9.67037 15.8981C9.42088 15.6488 9.08256 15.5088 8.72984 15.5089C8.37712 15.5091 8.0389 15.6493 7.78958 15.8988C7.54026 16.1483 7.40027 16.4866 7.40039 16.8393C7.40052 17.1921 7.54075 17.5303 7.79025 17.7796L12.9453 22.9267C13.0705 23.0513 13.2193 23.1497 13.383 23.2161C13.5467 23.2825 13.722 23.3157 13.8987 23.3136C14.2457 23.3163 14.5927 23.1873 14.86 22.9214L24.1769 13.5819C24.4279 13.3291 24.5687 12.9872 24.5684 12.6309C24.5682 12.2746 24.4269 11.9329 24.1755 11.6805Z" fill="white"/>
</g>
<defs>
<clipPath id="clip0_7379_2684">
<rect width="32" height="32" fill="white"/>
</clipPath>
</defs>
</svg>
