<svg width="80" height="80" viewBox="0 0 80 80" fill="none" xmlns="http://www.w3.org/2000/svg">
<path fill-rule="evenodd" clip-rule="evenodd" d="M42.7722 4.8002C41.5406 2.66686 38.4614 2.66686 37.2297 4.80019L1.20302 67.2002C-0.0286558 69.3335 1.51094 72.0002 3.9743 72.0002H76.0276C78.491 72.0002 80.0306 69.3335 78.7989 67.2002L42.7722 4.8002ZM40.0009 55.0002C38.0009 55.0002 36.6676 53.6669 36.6676 51.6669V25.3335C36.6676 23.3335 38.0009 22.0002 40.0009 22.0002C42.0009 22.0002 43.3342 23.3335 43.3342 25.3335V51.6669C43.3342 53.6669 42.0009 55.0002 40.0009 55.0002ZM36.6676 62.3335C36.6676 63.2176 37.0188 64.0654 37.6439 64.6905C38.269 65.3157 39.1169 65.6669 40.0009 65.6669C40.885 65.6669 41.7328 65.3157 42.3579 64.6905C42.9831 64.0654 43.3342 63.2176 43.3342 62.3335C43.3342 61.4495 42.9831 60.6016 42.3579 59.9765C41.7328 59.3514 40.885 59.0002 40.0009 59.0002C39.1169 59.0002 38.269 59.3514 37.6439 59.9765C37.0188 60.6016 36.6676 61.4495 36.6676 62.3335Z" fill="white"/>
</svg>
